<?xml version="1.0" encoding="utf-8"?>
<!-- Generator: Adobe Illustrator 10.0.3, SVG Export Plug-In . SVG Version: 3.0.0 Build 77)  -->
<!DOCTYPE svg PUBLIC "-//W3C//DTD SVG 1.0//EN"    "http://www.w3.org/TR/2001/REC-SVG-20010904/DTD/svg10.dtd" [
	<!ENTITY ns_flows "http://ns.adobe.com/Flows/1.0/">
	<!ENTITY ns_extend "http://ns.adobe.com/Extensibility/1.0/">
	<!ENTITY ns_ai "http://ns.adobe.com/AdobeIllustrator/10.0/">
	<!ENTITY ns_graphs "http://ns.adobe.com/Graphs/1.0/">
	<!ENTITY ns_vars "http://ns.adobe.com/Variables/1.0/">
	<!ENTITY ns_imrep "http://ns.adobe.com/ImageReplacement/1.0/">
	<!ENTITY ns_sfw "http://ns.adobe.com/SaveForWeb/1.0/">
	<!ENTITY ns_custom "http://ns.adobe.com/GenericCustomNamespace/1.0/">
	<!ENTITY ns_adobe_xpath "http://ns.adobe.com/XPath/1.0/">
	<!ENTITY ns_svg "http://www.w3.org/2000/svg">
	<!ENTITY ns_xlink "http://www.w3.org/1999/xlink">
]>
<svg 
	 xmlns:x="&ns_extend;" xmlns:i="&ns_ai;" xmlns:graph="&ns_graphs;" i:viewOrigin="207 518" i:rulerOrigin="-207 -274.2207" i:pageBounds="207 518 405.4248 274.2207"
	 xmlns="&ns_svg;" xmlns:xlink="&ns_xlink;" xmlns:a="http://ns.adobe.com/AdobeSVGViewerExtensions/3.0/"
	 width="198.425" height="243.779" viewBox="0 0 198.425 243.779" overflow="visible" enable-background="new 0 0 198.425 243.779"
	 xml:space="preserve">
	<metadata>
		<variableSets  xmlns="&ns_vars;">
			<variableSet  varSetName="binding1" locked="none">
				<variables></variables>
				<v:sampleDataSets  xmlns="&ns_custom;" xmlns:v="&ns_vars;"></v:sampleDataSets>
			</variableSet>
		</variableSets>
		<sfw  xmlns="&ns_sfw;">
			<slices></slices>
			<sliceSourceBounds  y="274.221" x="207" width="198.425" height="243.779" bottomLeftOrigin="true"></sliceSourceBounds>
		</sfw>
	</metadata>
	<g id="Layer_1" i:layer="yes" i:dimmedPercent="50" i:rgbTrio="#4F008000FFFF">
		<linearGradient id="XMLID_1_" gradientUnits="userSpaceOnUse" x1="114.3711" y1="7.1934" x2="114.3711" y2="159.9673">
			<stop  offset="0" style="stop-color:#2D2D2D"/>
			<stop  offset="0.0738" style="stop-color:#2D2D2D"/>
			<stop  offset="0.5225" style="stop-color:#2D2D2D"/>
			<stop  offset="1" style="stop-color:#A6A6A6"/>
			<a:midPointStop  offset="0" style="stop-color:#2D2D2D"/>
			<a:midPointStop  offset="0.13" style="stop-color:#2D2D2D"/>
			<a:midPointStop  offset="0.5225" style="stop-color:#2D2D2D"/>
			<a:midPointStop  offset="0.5" style="stop-color:#2D2D2D"/>
			<a:midPointStop  offset="1" style="stop-color:#A6A6A6"/>
		</linearGradient>
		<path i:knockout="Off" fill-rule="evenodd" clip-rule="evenodd" fill="url(#XMLID_1_)" d="M181.021,152.369
			c0.15,5.982-3.254,7.598-7.271,7.598H54.992c-4.016,0-7.271-3.402-7.271-7.598V14.847c0-4.195,2.018-8.185,7.252-7.653
			L173.749,7.25c4.018,0,7.271,3.401,7.271,7.597V152.369z"/>
		<g i:knockout="Off">
			<path i:knockout="Off" fill="#FFFFFF" d="M65.191,44.716c0,3.329,0.307,5.584,0.92,6.768c0.615,1.182,1.824,1.861,3.631,2.036
				c0.736,0.071,1.105,0.358,1.105,0.858s-0.299,0.751-0.896,0.751c-0.193,0-0.553-0.025-1.08-0.076
				c-1.51-0.116-2.967-0.175-4.373-0.175c-1.176,0-2.221,0.033-3.135,0.102l-2.213,0.202l-1.766,0.152
				c-0.49,0.051-0.834,0.076-1.027,0.076c-0.631,0-0.947-0.24-0.947-0.722c0-0.393,0.176-0.641,0.527-0.748
				c1.195-0.368,2.021-0.863,2.479-1.486s0.686-1.574,0.686-2.854v-2.499l0.027-1.026V27.026c0-2.104-0.264-3.517-0.791-4.236
				c-0.863-1.175-2.27-1.885-4.221-2.131c-0.723-0.106-1.082-0.409-1.082-0.908c0-0.498,0.246-0.748,0.738-0.748
				c0.193,0,0.51,0.026,0.949,0.077c1.354,0.137,2.838,0.204,4.455,0.204c1.775,0,3.928-0.095,6.459-0.286
				c2.969-0.226,5.018-0.339,6.143-0.339c3.338,0,6.107,0.911,8.305,2.731c2.195,1.82,3.295,4.111,3.295,6.873
				c0,1.742-0.488,3.325-1.463,4.75c-0.977,1.425-2.316,2.507-4.02,3.245c-0.352,0.142-0.52,0.317-0.502,0.528
				c0.018,0.176,0.105,0.386,0.264,0.632s0.396,0.658,0.713,1.236l2.348,4.159l2.717,4.817c0.932,1.632,1.764,2.764,2.494,3.396
				c0.729,0.632,1.586,0.947,2.572,0.947c0.404,0,0.781-0.035,1.135-0.105c0.211-0.052,0.404-0.079,0.58-0.079
				c0.316,0,0.475,0.203,0.475,0.605c0,0.51-0.719,1.087-2.152,1.732c-1.436,0.646-2.707,0.97-3.816,0.97
				c-1.811,0-3.48-0.887-5.008-2.659c-1.529-1.772-3.516-5.124-5.957-10.055c-0.949-1.947-1.73-3.181-2.346-3.698
				s-1.617-0.776-3.006-0.776h-1.633l-1.188,0.211c-0.264,0.14-0.395,0.561-0.395,1.261V44.716z M65.191,24.136v9.126
				c0,1.126,0.145,1.838,0.436,2.137c0.289,0.299,0.98,0.448,2.07,0.448c3.129,0,5.068-0.057,5.814-0.171
				c0.748-0.114,1.447-0.471,2.098-1.068c1.283-1.16,1.926-2.761,1.926-4.801c0-2.655-0.867-4.849-2.598-6.58
				c-1.732-1.732-3.936-2.599-6.607-2.599c-1.195,0-2.018,0.251-2.467,0.752C65.416,21.881,65.191,22.8,65.191,24.136z"/>
			<path i:knockout="Off" fill="#FFFFFF" d="M114.677,33v16.322c0,1.685,0.141,2.726,0.422,3.12s1.037,0.592,2.268,0.592
				l0.605-0.026c0.211,0,0.369,0.019,0.475,0.054c0.299,0.107,0.449,0.305,0.449,0.592c0,0.629-0.6,0.943-1.799,0.943h-1.27
				c-0.723,0-1.287,0.018-1.693,0.052c-1.076,0.069-2.328,0.276-3.756,0.621c-0.176,0.053-0.336,0.078-0.477,0.078
				c-0.387,0-0.58-0.325-0.58-0.974c0-0.35,0.018-0.648,0.053-0.893c0.035-0.351,0.053-0.613,0.053-0.789
				c0-0.525-0.115-0.797-0.344-0.814c-0.088,0-0.229,0.105-0.42,0.315l-0.949,0.974c-1.613,1.682-3.553,2.524-5.816,2.524
				c-2.597,0-4.554-0.722-5.87-2.163c-1.316-1.44-1.975-3.575-1.975-6.404c0-3.743,0.07-6.985,0.211-9.728
				c0.018-0.491,0.025-0.913,0.025-1.265c0-1.195-0.518-1.837-1.557-1.925l-1.057-0.079c-0.492-0.035-0.721-0.273-0.686-0.715
				c0.018-0.335,0.285-0.561,0.807-0.675c0.52-0.115,1.52-0.173,3-0.173c1.375,0,2.599-0.177,3.673-0.531
				c0.477-0.141,0.846-0.211,1.109-0.211c0.299,0,0.449,0.202,0.449,0.606c0,0.474-0.018,0.957-0.052,1.448
				c-0.158,1.861-0.236,5.118-0.236,9.771c0,3.581,0.324,5.974,0.972,7.176s1.945,1.804,3.893,1.804
				c1.523,0,2.699-0.453,3.523-1.359s1.236-2.21,1.236-3.913v-9.819c0-1.492-0.137-2.409-0.41-2.751
				c-0.271-0.343-1.041-0.593-2.305-0.751c-0.545-0.053-0.816-0.267-0.816-0.641c0-0.552,0.527-0.828,1.584-0.828
				c3.061,0,5.182-0.206,6.361-0.62c0.229-0.086,0.414-0.13,0.555-0.13c0.246-0.018,0.369,0.158,0.369,0.526L114.677,33z"/>
			<path i:knockout="Off" fill="#FFFFFF" d="M128.503,36.606c0,0.246,0.061,0.377,0.184,0.395l0.264-0.289
				c1.789-2.701,4.234-4.053,7.339-4.053c2.7,0,4.88,0.906,6.538,2.718c1.656,1.812,2.486,4.194,2.486,7.149
				c0,3.834-1.125,6.987-3.375,9.457c-2.25,2.472-5.114,3.708-8.594,3.708c-1.213,0-2.473-0.203-3.783-0.609
				c-1.309-0.406-2.316-0.909-3.018-1.509c-0.229-0.213-0.396-0.31-0.502-0.292c-0.176,0.018-0.553,0.421-1.133,1.211
				c-0.701,0.949-1.184,1.432-1.447,1.449c-0.281,0.018-0.42-0.221-0.42-0.711c0-0.317,0.018-0.748,0.053-1.293
				c0.105-1.247,0.158-2.187,0.158-2.819V24.947c0-1.282-0.225-2.213-0.674-2.793c-0.447-0.58-1.182-0.87-2.201-0.87
				c-0.334,0-0.5-0.195-0.5-0.587c0-0.355,0.201-0.587,0.607-0.694l1.67-0.368c1.605-0.386,3.451-1.21,5.535-2.474
				c0.156-0.088,0.305-0.141,0.445-0.158c0.244-0.018,0.367,0.457,0.367,1.423V36.606z M128.503,39.007v10.158
				c0,0.827,0.471,1.777,1.416,2.85c1.295,1.514,2.914,2.27,4.857,2.27c1.837,0,3.302-0.726,4.395-2.177
				c1.094-1.451,1.643-3.408,1.643-5.871c0-2.938-0.727-5.383-2.18-7.335c-1.452-1.953-3.271-2.93-5.459-2.93
				C131.058,35.972,129.499,36.983,128.503,39.007z"/>
			<path i:knockout="Off" fill="#FFFFFF" d="M155.688,38.562l4.494,8.563c0.424,0.791,0.732,1.186,0.926,1.186
				c0.264,0,0.66-0.659,1.188-1.979l1.189-2.957c1.197-3.01,1.795-5.166,1.795-6.469c0-0.616-0.26-1.184-0.779-1.703
				c-0.521-0.519-1.16-0.866-1.918-1.043c-0.477-0.087-0.723-0.27-0.74-0.549c-0.018-0.384,0.176-0.576,0.582-0.576
				c0.193,0,0.484,0.018,0.871,0.052c1.463,0.153,2.73,0.229,3.805,0.229c0.986,0,1.779-0.035,2.379-0.106
				c0.439-0.054,0.738-0.081,0.898-0.081c0.352,0,0.527,0.192,0.527,0.575c0,0.349-0.229,0.584-0.686,0.706
				c-1.055,0.282-1.951,1.338-2.689,3.168l-0.529,1.319l-9.752,24.258c-0.227,0.545-0.576,0.818-1.049,0.818
				c-0.141,0-0.367-0.01-0.682-0.027l-1.469-0.105c-0.281-0.018-0.412-0.123-0.395-0.314c0.018-0.158,0.098-0.334,0.238-0.527
				c2.871-3.549,4.309-5.975,4.309-7.273c0-0.369-0.193-0.94-0.58-1.714l-8.409-16.576l-0.713-1.423
				c-0.422-0.772-1.055-1.317-1.899-1.634c-0.316-0.123-0.475-0.3-0.475-0.529c0-0.459,0.264-0.689,0.79-0.689
				c0.246,0,0.502,0.018,0.766,0.052c1.494,0.153,2.854,0.229,4.087,0.229c1.6,0,3.199-0.097,4.799-0.291
				c0.229-0.035,0.404-0.053,0.527-0.053c0.457,0,0.686,0.23,0.686,0.69c0,0.389-0.211,0.628-0.635,0.716l-0.82,0.132
				c-0.988,0.176-1.482,0.738-1.482,1.687C154.843,36.708,155.124,37.455,155.688,38.562z"/>
		</g>
		<g i:knockout="Off">
			<path i:knockout="Off" fill="#404040" d="M35.094,175.051v9.357c0,1.562,0.088,2.594,0.264,3.096
				c0.209,0.6,0.695,0.94,1.457,1.022l0.449,0.05c0.189,0.016,0.283,0.138,0.283,0.363c0,0.227-0.133,0.34-0.398,0.34
				c-0.062,0-0.164-0.009-0.305-0.025c-0.225-0.025-0.455-0.037-0.693-0.037l-1.629-0.076l-0.41,0.014
				c-0.498,0-1.178,0.061-2.039,0.184c-0.281,0.044-0.502,0.066-0.662,0.066c-0.225,0-0.34-0.1-0.348-0.297
				c-0.006-0.191,0.082-0.311,0.264-0.359c0.539-0.148,0.898-0.449,1.078-0.902c0.178-0.452,0.268-1.287,0.268-2.506v-9.509
				c0-0.946-0.152-1.638-0.457-2.075c-0.307-0.436-0.82-0.699-1.543-0.789c-0.26-0.042-0.391-0.172-0.391-0.389
				c0-0.24,0.15-0.361,0.451-0.361c0.078,0,0.242,0.012,0.494,0.037c0.77,0.059,1.662,0.088,2.678,0.088
				c0.482,0,0.881-0.013,1.197-0.037l1.164-0.086c0.393-0.033,0.75-0.049,1.072-0.049c1.98,0,3.426,0.489,4.336,1.469
				c0.811,0.881,1.217,1.951,1.217,3.21c0,1.358-0.426,2.507-1.281,3.444c-0.854,0.939-1.9,1.408-3.141,1.408
				c-0.672,0-1.262-0.082-1.77-0.246s-0.762-0.357-0.762-0.578c0-0.222,0.088-0.332,0.264-0.332c0.041,0,0.098,0.012,0.168,0.037
				c0.385,0.131,0.758,0.197,1.115,0.197c0.84,0,1.533-0.323,2.076-0.969c0.543-0.646,0.814-1.471,0.814-2.475
				c0-1.25-0.312-2.27-0.938-3.061c-0.625-0.789-1.43-1.184-2.416-1.184c-0.76,0-1.271,0.133-1.535,0.4
				C35.225,173.76,35.094,174.279,35.094,175.051z"/>
			<path i:knockout="Off" fill="#404040" d="M48.328,184.376c0,1.562,0.123,2.618,0.367,3.173s0.725,0.873,1.443,0.955
				c0.293,0.033,0.439,0.168,0.439,0.404s-0.119,0.355-0.357,0.355c-0.076,0-0.221-0.014-0.43-0.038
				c-0.604-0.058-1.184-0.087-1.744-0.087c-0.469,0-0.887,0.016-1.25,0.047l-0.883,0.096l-0.705,0.071
				c-0.195,0.024-0.332,0.036-0.408,0.036c-0.252,0-0.379-0.113-0.379-0.338c0-0.184,0.07-0.301,0.211-0.35
				c0.477-0.173,0.807-0.404,0.99-0.697c0.182-0.291,0.273-0.736,0.273-1.338v-1.17l0.01-0.48v-8.926
				c0-0.986-0.105-1.647-0.314-1.984c-0.342-0.551-0.902-0.883-1.678-0.998c-0.287-0.051-0.43-0.193-0.43-0.43
				c0-0.234,0.098-0.352,0.293-0.352c0.078,0,0.203,0.012,0.379,0.037c0.539,0.068,1.129,0.104,1.773,0.104
				c0.707,0,1.562-0.045,2.57-0.137c1.182-0.107,1.998-0.16,2.445-0.16c1.33,0,2.432,0.426,3.305,1.278
				c0.875,0.853,1.312,1.925,1.312,3.218c0,0.816-0.193,1.559-0.582,2.225c-0.389,0.668-0.92,1.174-1.6,1.52
				c-0.139,0.066-0.205,0.148-0.199,0.248c0.008,0.082,0.043,0.181,0.105,0.296c0.062,0.116,0.158,0.31,0.283,0.581l0.934,1.951
				l1.08,2.261c0.371,0.767,0.701,1.298,0.992,1.594c0.289,0.296,0.631,0.444,1.021,0.444c0.162,0,0.312-0.016,0.451-0.049
				c0.084-0.025,0.162-0.037,0.23-0.037c0.127,0,0.189,0.094,0.189,0.283c0,0.24-0.285,0.51-0.855,0.812
				c-0.572,0.302-1.078,0.453-1.52,0.453c-0.719,0-1.383-0.416-1.99-1.248c-0.607-0.83-1.396-2.402-2.369-4.717
				c-0.377-0.912-0.688-1.49-0.932-1.734c-0.244-0.242-0.643-0.363-1.195-0.363h-0.65l-0.471,0.098
				c-0.105,0.066-0.158,0.264-0.158,0.592V184.376z M48.328,174.734v4.271c0,0.527,0.059,0.861,0.174,1
				c0.115,0.141,0.389,0.211,0.822,0.211c1.244,0,2.014-0.027,2.312-0.08c0.297-0.055,0.574-0.221,0.832-0.5
				c0.51-0.544,0.766-1.293,0.766-2.248c0-1.243-0.344-2.27-1.033-3.081c-0.688-0.812-1.562-1.216-2.625-1.216
				c-0.477,0-0.803,0.117-0.98,0.352S48.328,174.107,48.328,174.734z"/>
			<path i:knockout="Off" fill="#404040" d="M66.168,171.982c2.184,0,3.947,0.746,5.293,2.24c1.344,1.494,2.016,3.455,2.016,5.883
				c0,2.643-0.693,4.881-2.08,6.717c-1.35,1.794-3.213,2.691-5.586,2.691c-2.268,0-4.08-0.78-5.438-2.34
				c-1.359-1.561-2.037-3.645-2.037-6.254c0-1.119,0.172-2.232,0.514-3.339c0.344-1.106,0.809-2.035,1.396-2.784
				c0.68-0.881,1.543-1.57,2.588-2.068C63.881,172.23,64.992,171.982,66.168,171.982z M65.41,172.904
				c-1.406,0-2.504,0.613-3.295,1.838c-0.791,1.227-1.186,2.934-1.186,5.123c0,2.584,0.496,4.684,1.49,6.301
				c0.992,1.617,2.283,2.426,3.871,2.426c1.434,0,2.582-0.669,3.441-2.006c0.861-1.338,1.291-3.125,1.291-5.363
				c0-1.291-0.199-2.553-0.598-3.783c-0.4-1.23-0.932-2.207-1.596-2.932C67.865,173.439,66.725,172.904,65.41,172.904z"/>
			<path i:knockout="Off" fill="#404040" d="M82.213,171.998c1.168,0,2.537,0.398,4.104,1.195c0.398,0.197,0.654,0.297,0.766,0.297
				c0.1,0,0.186-0.041,0.264-0.125l0.115-0.123c0.07-0.082,0.152-0.127,0.252-0.135c0.209-0.009,0.314,0.14,0.314,0.444
				l-0.012,0.865l-0.041,1.692L88.006,177c0.014,0.223,0.033,0.461,0.059,0.717c0.006,0.1,0.01,0.174,0.01,0.223
				c0,0.264-0.109,0.387-0.328,0.371c-0.148-0.009-0.248-0.182-0.297-0.52c-0.141-0.988-0.584-1.955-1.33-2.902
				c-1.057-1.334-2.33-2-3.826-2c-1.424,0-2.564,0.66-3.42,1.98s-1.283,3.078-1.283,5.275c0,2.352,0.441,4.332,1.322,5.941
				c0.883,1.607,1.971,2.412,3.26,2.412c0.385,0,0.873-0.102,1.465-0.303c0.594-0.201,1.043-0.42,1.35-0.658
				c0.279-0.213,0.473-0.525,0.582-0.936c0.107-0.41,0.162-1.047,0.162-1.908c0-0.984-0.15-1.668-0.453-2.049
				c-0.301-0.383-0.863-0.598-1.689-0.646c-0.219-0.018-0.326-0.139-0.326-0.365c0-0.225,0.125-0.338,0.379-0.338
				c0.076,0,0.199,0.008,0.369,0.025c0.688,0.076,1.467,0.115,2.338,0.115c0.898,0,1.559-0.029,1.979-0.084
				c0.316-0.049,0.58-0.072,0.791-0.072c0.252,0,0.379,0.109,0.379,0.328c0,0.201-0.127,0.332-0.379,0.391
				c-0.408,0.098-0.689,0.352-0.844,0.762s-0.23,1.103-0.23,2.078c0,0.303,0.01,0.574,0.031,0.811
				c0.027,0.41,0.041,0.697,0.041,0.861c0,0.254-0.043,0.441-0.131,0.559c-0.088,0.119-0.264,0.236-0.529,0.352
				c-0.16,0.065-0.717,0.34-1.668,0.824c-1.672,0.846-3.131,1.27-4.375,1.27c-1.889,0-3.434-0.754-4.633-2.26
				s-1.799-3.451-1.799-5.838c0-2.666,0.691-4.902,2.078-6.709C78.443,172.9,80.162,171.998,82.213,171.998z"/>
			<path i:knockout="Off" fill="#404040" d="M95.01,184.376c0,1.562,0.121,2.618,0.365,3.173s0.727,0.873,1.445,0.955
				c0.293,0.033,0.439,0.168,0.439,0.404s-0.119,0.355-0.357,0.355c-0.078,0-0.221-0.014-0.432-0.038
				c-0.602-0.058-1.184-0.087-1.742-0.087c-0.471,0-0.887,0.016-1.252,0.047l-0.881,0.096l-0.705,0.071
				c-0.195,0.024-0.332,0.036-0.41,0.036c-0.252,0-0.377-0.113-0.377-0.338c0-0.184,0.07-0.301,0.211-0.35
				c0.477-0.173,0.807-0.404,0.988-0.697c0.184-0.291,0.273-0.736,0.273-1.338v-1.17l0.012-0.48v-8.926
				c0-0.986-0.105-1.647-0.314-1.984c-0.344-0.551-0.902-0.883-1.678-0.998c-0.287-0.051-0.43-0.193-0.43-0.43
				c0-0.234,0.098-0.352,0.293-0.352c0.078,0,0.203,0.012,0.379,0.037c0.537,0.068,1.129,0.104,1.773,0.104
				c0.705,0,1.562-0.045,2.57-0.137c1.182-0.107,1.998-0.16,2.445-0.16c1.328,0,2.429,0.426,3.304,1.278
				c0.873,0.853,1.311,1.925,1.311,3.218c0,0.816-0.193,1.559-0.582,2.225c-0.387,0.668-0.92,1.174-1.598,1.52
				c-0.14,0.066-0.207,0.148-0.201,0.248c0.008,0.082,0.043,0.181,0.105,0.296c0.062,0.116,0.158,0.31,0.283,0.581l0.934,1.951
				l1.08,2.261c0.371,0.767,0.701,1.298,0.992,1.594c0.289,0.296,0.631,0.444,1.023,0.444c0.16,0,0.311-0.016,0.449-0.049
				c0.084-0.025,0.162-0.037,0.232-0.037c0.125,0,0.188,0.094,0.188,0.283c0,0.24-0.285,0.51-0.855,0.812
				c-0.572,0.302-1.078,0.453-1.52,0.453c-0.719,0-1.383-0.416-1.99-1.248c-0.607-0.83-1.396-2.402-2.367-4.717
				c-0.377-0.912-0.688-1.49-0.932-1.734c-0.246-0.242-0.644-0.363-1.195-0.363h-0.65l-0.473,0.098
				c-0.104,0.066-0.156,0.264-0.156,0.592V184.376z M95.01,174.734v4.271c0,0.527,0.057,0.861,0.172,1
				c0.115,0.141,0.391,0.211,0.824,0.211c1.244,0,2.013-0.027,2.31-0.08c0.297-0.055,0.576-0.221,0.834-0.5
				c0.51-0.544,0.764-1.293,0.764-2.248c0-1.243-0.344-2.27-1.031-3.081s-1.564-1.216-2.625-1.216c-0.477,0-0.803,0.117-0.98,0.352
				C95.098,173.678,95.01,174.107,95.01,174.734z"/>
			<path i:knockout="Off" fill="#404040" d="M112.927,173.684l4.779,12.902c0.238,0.65,0.52,1.137,0.842,1.457
				c0.322,0.321,0.738,0.535,1.25,0.643c0.127,0.024,0.189,0.141,0.189,0.348c0,0.225-0.08,0.332-0.242,0.324
				c-0.092-0.009-0.225-0.033-0.4-0.074c-0.539-0.139-1.408-0.207-2.609-0.207c-1.205,0-2.025,0.065-2.461,0.197
				c-0.105,0.035-0.197,0.053-0.273,0.053c-0.197,0-0.295-0.117-0.295-0.349c0-0.116,0.076-0.203,0.23-0.261
				c0.334-0.115,0.611-0.322,0.83-0.619c0.221-0.297,0.33-0.61,0.33-0.94c0-0.462-0.303-1.478-0.91-3.044
				c-0.189-0.479-0.396-0.752-0.623-0.822s-1.029-0.105-2.41-0.105h-1.422l-0.941,0.197c-0.258,0.14-0.551,0.683-0.879,1.629
				l-0.324,0.951c-0.098,0.271-0.146,0.547-0.146,0.826c0,1.037,0.615,1.638,1.846,1.803c0.266,0.041,0.396,0.162,0.389,0.361
				c-0.014,0.217-0.141,0.326-0.379,0.326c-0.127,0-0.307-0.025-0.537-0.074c-0.465-0.107-0.879-0.16-1.244-0.16
				c-0.33,0-0.863,0.04-1.602,0.121c-0.547,0.064-0.889,0.098-1.021,0.098c-0.197,0-0.295-0.1-0.295-0.299
				c0-0.166,0.098-0.291,0.295-0.373c0.379-0.141,0.682-0.397,0.91-0.771c0.229-0.375,0.566-1.163,1.014-2.365l2.865-7.777
				c0.23-0.617,0.393-1.041,0.482-1.271l0.977-2.357l0.504-1.16v0.037c0.225-0.619,0.375-0.928,0.453-0.928
				c0.111,0,0.305,0.344,0.578,1.031L112.927,173.684z M113.317,181.408l-1.371-3.772c-0.326-0.904-0.561-1.356-0.699-1.356
				c-0.084,0-0.238,0.292-0.461,0.875l-0.199,0.518l-1.223,3.293l-0.115,0.309c-0.049,0.123-0.074,0.23-0.074,0.32
				c0,0.279,0.252,0.42,0.754,0.42h3.096c0.266,0,0.398-0.086,0.398-0.26c0-0.041-0.018-0.111-0.053-0.209L113.317,181.408z"/>
			<path i:knockout="Off" fill="#404040" d="M124.382,173.057l4.307,11.053c0.189,0.486,0.348,0.725,0.473,0.717
				c0.125-0.009,0.256-0.178,0.389-0.507l3.959-9.917c0.371-0.938,0.637-1.527,0.797-1.766c0.162-0.238,0.371-0.357,0.631-0.357
				c0.098,0,0.252,0.013,0.463,0.039c0.202,0.025,0.411,0.039,0.63,0.039c0.287,0,0.641-0.029,1.061-0.088
				c0.217-0.025,0.377-0.037,0.482-0.037c0.246,0,0.369,0.115,0.369,0.346c0,0.19-0.096,0.293-0.285,0.311
				c-0.656,0.057-1.117,0.316-1.379,0.776c-0.264,0.46-0.395,1.237-0.395,2.331l0.012,0.838l0.254,7.668l0.012,0.506
				c0,1.135,0.17,1.975,0.51,2.521s0.9,0.869,1.68,0.969c0.194,0.033,0.294,0.154,0.294,0.363c0,0.227-0.24,0.34-0.716,0.34
				c-0.141,0-0.365-0.021-0.674-0.061c-0.857-0.105-1.465-0.158-1.821-0.158c-0.736,0-1.352,0.041-1.842,0.125
				c-0.465,0.082-0.779,0.125-0.949,0.125c-0.176,0-0.262-0.105-0.262-0.316c0-0.159,0.102-0.273,0.305-0.34
				c0.4-0.132,0.684-0.342,0.848-0.629c0.166-0.287,0.248-0.715,0.248-1.281c0-0.271-0.004-0.463-0.01-0.578l-0.312-8.18
				c-0.008-0.222-0.053-0.332-0.137-0.332c-0.105,0-0.25,0.227-0.432,0.678l-3.947,9.846l-0.146,0.371
				c-0.203,0.51-0.371,0.769-0.502,0.777c-0.154,0.008-0.412-0.445-0.773-1.357l-0.535-1.283l-3.365-8.807l-0.072-0.186
				c-0.029-0.058-0.07-0.086-0.127-0.086c-0.111,0-0.166,0.168-0.166,0.506l-0.012,0.395l-0.135,6.236l-0.01,0.494l0.094,1.162
				c0.197,1.209,0.746,1.951,1.65,2.223c0.316,0.092,0.475,0.232,0.475,0.424c0,0.217-0.123,0.326-0.369,0.326
				c-0.191,0-0.416-0.021-0.676-0.062l-0.75-0.123c-0.189-0.033-0.463-0.049-0.822-0.049c-0.641,0-1.139,0.037-1.498,0.109
				c-0.232,0.052-0.408,0.078-0.527,0.078c-0.219,0-0.326-0.109-0.326-0.328c0-0.152,0.084-0.262,0.252-0.328
				c0.541-0.214,0.936-0.594,1.186-1.141c0.25-0.545,0.375-1.303,0.375-2.273l0.281-8.094l0.031-0.826
				c0-0.986-0.205-1.76-0.615-2.322s-0.975-0.844-1.689-0.844c-0.266,0-0.398-0.118-0.398-0.354c0-0.244,0.15-0.365,0.451-0.365
				c0.062,0,0.143,0.004,0.242,0.012l0.609,0.053c0.111,0.01,0.254,0.014,0.43,0.014c0.33,0,0.65-0.025,0.967-0.074
				c0.477-0.065,0.783-0.098,0.924-0.098C123.856,172.279,124.185,172.538,124.382,173.057z"/>
			<path i:knockout="Off" fill="#404040" d="M143.374,173.057l4.308,11.053c0.189,0.486,0.346,0.725,0.473,0.717
				c0.125-0.009,0.254-0.178,0.387-0.507l3.958-9.917c0.371-0.938,0.637-1.527,0.799-1.766c0.16-0.238,0.371-0.357,0.631-0.357
				c0.098,0,0.252,0.013,0.461,0.039c0.203,0.025,0.414,0.039,0.631,0.039c0.287,0,0.641-0.029,1.061-0.088
				c0.219-0.025,0.379-0.037,0.484-0.037c0.244,0,0.367,0.115,0.367,0.346c0,0.19-0.094,0.293-0.283,0.311
				c-0.658,0.057-1.117,0.316-1.381,0.776c-0.262,0.46-0.393,1.237-0.393,2.331l0.01,0.838l0.256,7.668l0.01,0.506
				c0,1.135,0.17,1.975,0.512,2.521c0.34,0.547,0.898,0.869,1.678,0.969c0.197,0.033,0.295,0.154,0.295,0.363
				c0,0.227-0.238,0.34-0.715,0.34c-0.141,0-0.365-0.021-0.676-0.061c-0.855-0.105-1.463-0.158-1.82-0.158
				c-0.738,0-1.352,0.041-1.844,0.125c-0.463,0.082-0.779,0.125-0.947,0.125c-0.176,0-0.264-0.105-0.264-0.316
				c0-0.159,0.102-0.273,0.307-0.34c0.4-0.132,0.682-0.342,0.848-0.629c0.164-0.287,0.248-0.715,0.248-1.281
				c0-0.271-0.004-0.463-0.012-0.578l-0.312-8.18c-0.006-0.222-0.053-0.332-0.137-0.332c-0.104,0-0.248,0.227-0.43,0.678
				l-3.948,9.846l-0.146,0.371c-0.201,0.51-0.369,0.769-0.502,0.777c-0.152,0.008-0.409-0.445-0.772-1.357l-0.533-1.283
				l-3.365-8.807l-0.074-0.186c-0.027-0.058-0.068-0.086-0.125-0.086c-0.111,0-0.168,0.168-0.168,0.506l-0.01,0.395l-0.135,6.236
				l-0.012,0.494l0.096,1.162c0.195,1.209,0.746,1.951,1.65,2.223c0.314,0.092,0.473,0.232,0.473,0.424
				c0,0.217-0.123,0.326-0.369,0.326c-0.189,0-0.414-0.021-0.676-0.062l-0.748-0.123c-0.189-0.033-0.465-0.049-0.822-0.049
				c-0.641,0-1.141,0.037-1.498,0.109c-0.232,0.052-0.408,0.078-0.527,0.078c-0.219,0-0.328-0.109-0.328-0.328
				c0-0.152,0.084-0.262,0.254-0.328c0.541-0.214,0.936-0.594,1.186-1.141c0.248-0.545,0.373-1.303,0.373-2.273l0.281-8.094
				l0.031-0.826c0-0.986-0.205-1.76-0.615-2.322s-0.973-0.844-1.688-0.844c-0.268,0-0.4-0.118-0.4-0.354
				c0-0.244,0.15-0.365,0.453-0.365c0.062,0,0.143,0.004,0.24,0.012l0.609,0.053c0.111,0.01,0.256,0.014,0.432,0.014
				c0.328,0,0.65-0.025,0.967-0.074c0.475-0.065,0.783-0.098,0.924-0.098C142.849,172.279,143.179,172.538,143.374,173.057z"/>
			<path i:knockout="Off" fill="#404040" d="M162.647,185.35l0.084,1.232c0.084,0.635,0.289,1.119,0.613,1.457
				c0.324,0.337,0.75,0.506,1.273,0.506c0.342,0,0.514,0.124,0.514,0.373c0,0.24-0.227,0.361-0.682,0.361
				c-0.197,0-0.477-0.022-0.84-0.066c-0.91-0.123-1.65-0.184-2.217-0.184c-0.699,0-1.254,0.043-1.658,0.131
				c-0.352,0.078-0.604,0.119-0.758,0.119c-0.152,0-0.252-0.089-0.293-0.266l-0.021-0.102l0.305-0.289
				c0.504-0.215,0.836-0.475,1.002-0.783c0.164-0.309,0.246-0.82,0.246-1.535l0.01-1.098v-9.828c0-0.756-0.111-1.295-0.336-1.615
				s-0.635-0.534-1.229-0.641c-0.357-0.066-0.588-0.131-0.689-0.193c-0.102-0.062-0.152-0.167-0.152-0.316
				c0-0.23,0.084-0.343,0.252-0.334c0.127,0.008,0.316,0.042,0.568,0.102c0.252,0.067,0.676,0.102,1.271,0.102
				c0.393,0,0.879-0.027,1.461-0.084l0.768-0.071c0.723-0.063,1.275-0.095,1.662-0.095c0.23,0,0.346,0.101,0.346,0.303
				c0,0.15-0.018,0.252-0.053,0.303c-0.035,0.05-0.121,0.088-0.262,0.113c-0.504,0.098-0.826,0.263-0.971,0.492
				c-0.143,0.23-0.215,0.699-0.215,1.407V185.35z"/>
			<path i:knockout="Off" fill="#404040" d="M171.462,175.115l5.555,7.328l0.357,0.469c0.475,0.626,0.793,0.938,0.953,0.938
				c0.146,0,0.227-0.251,0.24-0.753c0.064-1.818,0.096-3.551,0.096-5.197c0-1.935-0.166-3.244-0.498-3.926
				c-0.332-0.684-0.982-1.066-1.953-1.148c-0.23-0.018-0.346-0.112-0.346-0.287c0-0.215,0.102-0.322,0.303-0.322
				c0.252,0,0.658,0.042,1.217,0.127c0.363,0.051,0.664,0.076,0.902,0.076c0.482,0,1.248-0.08,2.297-0.24
				c0.141-0.018,0.242-0.025,0.305-0.025c0.223,0,0.336,0.115,0.336,0.346c0,0.207-0.113,0.332-0.336,0.373
				c-0.902,0.197-1.352,1.141-1.352,2.828v0.605l-0.148,7.722l-0.041,1.062l-0.012,1.372l0.012,0.938l0.041,1.545
				c0,0.23-0.07,0.342-0.211,0.334c-0.125-0.009-0.254-0.1-0.387-0.271l-9.553-12.49c-0.168-0.213-0.283-0.32-0.346-0.32
				c-0.168,0-0.252,0.186-0.252,0.555l-0.01,0.357v4.785c0,2.557,0.107,4.268,0.324,5.131c0.232,0.92,0.914,1.443,2.047,1.566
				c0.211,0.025,0.316,0.129,0.316,0.313c0,0.251-0.109,0.376-0.326,0.376c-0.084,0-0.221-0.016-0.41-0.049
				c-0.59-0.115-1.242-0.172-1.957-0.172c-0.709,0-1.34,0.059-1.893,0.178c-0.246,0.048-0.424,0.072-0.537,0.072
				c-0.189,0-0.283-0.102-0.283-0.303c0-0.168,0.1-0.287,0.303-0.354c0.51-0.174,0.883-0.529,1.115-1.066
				c0.234-0.539,0.352-1.314,0.352-2.324l0.074-2.936v-5.352c0-2.531-0.793-3.863-2.379-3.994c-0.217-0.018-0.324-0.12-0.324-0.311
				c0-0.23,0.119-0.346,0.357-0.346l0.727,0.043l0.441-0.012c0.547,0,1.133-0.035,1.758-0.105c0.23-0.023,0.424-0.035,0.578-0.035
				c0.217,0,0.387,0.055,0.514,0.166c0.125,0.111,0.391,0.451,0.797,1.018l0.723,1C171.235,174.795,171.405,175.033,171.462,175.115
				z"/>
			<path i:knockout="Off" fill="#404040" d="M189.526,171.998c1.168,0,2.537,0.398,4.104,1.195c0.4,0.197,0.654,0.297,0.768,0.297
				c0.098,0,0.186-0.041,0.262-0.125l0.115-0.123c0.07-0.082,0.154-0.127,0.252-0.135c0.209-0.009,0.314,0.14,0.314,0.444
				l-0.01,0.865l-0.043,1.692l0.031,0.891c0.016,0.223,0.035,0.461,0.059,0.717c0.008,0.1,0.01,0.174,0.01,0.223
				c0,0.264-0.109,0.387-0.328,0.371c-0.148-0.009-0.248-0.182-0.297-0.52c-0.139-0.988-0.582-1.955-1.33-2.902
				c-1.055-1.334-2.33-2-3.824-2c-1.426,0-2.566,0.66-3.422,1.98s-1.283,3.078-1.283,5.275c0,2.352,0.441,4.332,1.324,5.941
				c0.883,1.607,1.969,2.412,3.26,2.412c0.383,0,0.871-0.102,1.465-0.303c0.592-0.201,1.043-0.42,1.35-0.658
				c0.279-0.213,0.473-0.525,0.58-0.936s0.162-1.047,0.162-1.908c0-0.984-0.15-1.668-0.451-2.049
				c-0.301-0.383-0.865-0.598-1.691-0.646c-0.217-0.018-0.326-0.139-0.326-0.365c0-0.225,0.127-0.338,0.379-0.338
				c0.078,0,0.201,0.008,0.369,0.025c0.688,0.076,1.467,0.115,2.338,0.115c0.898,0,1.559-0.029,1.98-0.084
				c0.314-0.049,0.578-0.072,0.789-0.072c0.252,0,0.379,0.109,0.379,0.328c0,0.201-0.127,0.332-0.379,0.391
				c-0.406,0.098-0.688,0.352-0.842,0.762s-0.232,1.103-0.232,2.078c0,0.303,0.012,0.574,0.031,0.811
				c0.029,0.41,0.043,0.697,0.043,0.861c0,0.254-0.045,0.441-0.131,0.559c-0.088,0.119-0.266,0.236-0.531,0.352
				c-0.16,0.065-0.717,0.34-1.668,0.824c-1.672,0.846-3.129,1.27-4.375,1.27c-1.889,0-3.432-0.754-4.633-2.26
				c-1.199-1.506-1.799-3.451-1.799-5.838c0-2.666,0.693-4.902,2.078-6.709C185.759,172.9,187.476,171.998,189.526,171.998z"/>
		</g>
		<g i:knockout="Off">
			<path i:knockout="Off" d="M11.24,220.896l0.025,1.061c0,2.424,0.197,3.859,0.594,4.303c0.395,0.445,1.684,0.668,3.865,0.668
				c3.213,0,6-0.449,8.363-1.348c2.361-0.896,3.869-2.082,4.521-3.555c0.238-0.545,0.475-0.816,0.713-0.816
				c0.271,0,0.398,0.199,0.381,0.602c-0.068,1.324-0.625,2.779-1.672,4.365c-1.477,2.189-3.869,3.283-7.18,3.283
				c-0.549,0-1.184-0.031-1.904-0.09l-2.779-0.236c-1.629-0.137-3.354-0.205-5.172-0.205c-2.111,0-3.877,0.117-5.301,0.354
				c-0.602,0.098-1.082,0.158-1.441,0.178c-0.43,0.02-0.645-0.16-0.645-0.537c0-0.316,0.232-0.555,0.697-0.713
				c1.188-0.424,1.984-1.045,2.389-1.863s0.607-2.195,0.607-4.135l0.025-1.393v-27.08c0-2.686-0.928-4.25-2.783-4.695l-1.16-0.271
				c-0.412-0.1-0.619-0.299-0.619-0.596c0-0.457,0.291-0.686,0.875-0.686c0.393,0,0.934,0.041,1.619,0.125
				c1.164,0.125,2.475,0.188,3.932,0.188c1.576,0,3.006-0.053,4.291-0.156c0.65-0.043,1.02-0.062,1.105-0.062
				c0.41,0,0.615,0.148,0.615,0.447c0,0.438-0.248,0.725-0.746,0.865l-0.9,0.242c-1.545,0.443-2.316,2.252-2.316,5.424V220.896z"/>
			<path i:knockout="Off" d="M43.301,215.771v-3.752c0-2.318-0.367-3.922-1.102-4.809c-0.99-1.211-2.322-1.814-3.996-1.814
				c-2.258,0-3.385,1.121-3.385,3.367c0,0.662,0.111,1.424,0.334,2.285c0.104,0.361,0.162,0.682,0.18,0.963
				c0.018,0.359-0.152,0.541-0.512,0.541c-0.803,0-1.531-0.203-2.189-0.605c-0.656-0.404-0.986-0.848-0.986-1.332
				c0-1.248,0.574-2.596,1.723-4.043c1.543-1.951,3.59-2.926,6.145-2.926c2.33,0,4.139,0.609,5.424,1.828s1.928,2.938,1.928,5.154
				v11.85c0,1.873,0.193,3.209,0.578,4.004c0.385,0.797,1.029,1.195,1.938,1.195c0.256,0,0.461-0.018,0.615-0.055
				c0.307-0.088,0.514-0.133,0.615-0.133c0.291-0.021,0.428,0.125,0.41,0.438c-0.018,0.361-0.422,0.727-1.213,1.098
				s-1.564,0.559-2.322,0.559c-1.41,0-2.684-1.021-3.818-3.062c-2.477,2.229-4.775,3.344-6.893,3.344
				c-1.605,0-2.883-0.51-3.832-1.527c-0.947-1.02-1.422-2.385-1.422-4.1c0-2.318,0.896-4.117,2.689-5.398
				C36.002,217.561,39.033,216.537,43.301,215.771z M43.301,216.99c-2.65,0.279-4.699,0.986-6.145,2.117
				c-1.445,1.133-2.168,2.58-2.168,4.344c0,1.383,0.346,2.479,1.033,3.291c0.689,0.811,1.619,1.217,2.793,1.217
				c1.428,0,2.625-0.553,3.594-1.658c0.596-0.701,0.893-1.816,0.893-3.342V216.99z"/>
			<path i:knockout="Off" d="M60.611,208.459c2.299-3.209,4.682-4.812,7.152-4.812c2.744,0,4.914,1.322,6.508,3.969
				c1.098,1.82,1.646,4.588,1.646,8.305v7.244l-0.025,0.91l0.078,1.455c0.188,1.334,0.906,2.111,2.156,2.334l1.078,0.182
				c0.463,0.08,0.701,0.279,0.719,0.598c0.018,0.439-0.264,0.66-0.844,0.66c-0.188,0-0.521-0.037-0.998-0.107
				c-0.564-0.096-1.604-0.143-3.123-0.143l-2.533,0.094h-0.973l-0.742,0.062l-0.357-0.094c-0.119-0.084-0.18-0.24-0.18-0.469
				c0-0.312,0.154-0.512,0.461-0.594l0.766-0.242c0.682-0.201,1.023-0.928,1.023-2.178v-10.436c0-2.803-0.551-4.965-1.65-6.486
				c-1.1-1.523-2.664-2.283-4.691-2.283c-1.426,0-2.693,0.494-3.803,1.482c-1.107,0.99-1.662,2.121-1.662,3.393v11.561l0.025,0.91
				l0.025,1.518c0.086,1.699,1.273,2.631,3.566,2.793c0.564,0.062,0.846,0.281,0.846,0.656s-0.197,0.562-0.59,0.562
				c-0.293,0-0.729-0.061-1.311-0.18c-0.326-0.047-1.131-0.07-2.416-0.07c-2.723,0-4.35,0.047-4.881,0.143
				c-0.531,0.07-0.873,0.107-1.027,0.107c-0.326,0-0.48-0.168-0.463-0.5c0.018-0.25,0.18-0.449,0.486-0.594
				c0.871-0.363,1.455-0.807,1.754-1.33s0.447-1.371,0.447-2.539v-13.662c0-1.43-0.146-2.402-0.438-2.916
				c-0.293-0.514-0.844-0.771-1.652-0.771l-1.109,0.031c-0.154,0-0.293-0.043-0.412-0.125c-0.154-0.084-0.232-0.23-0.232-0.438
				c0-0.293,0.223-0.49,0.67-0.594c1.152-0.242,2.262-0.656,3.328-1.24l1.365-0.787c0.533-0.303,0.869-0.494,1.006-0.574
				c0.24-0.162,0.447-0.242,0.619-0.242c0.309,0,0.447,0.291,0.412,0.875c-0.018,0.322-0.025,0.705-0.025,1.148V208.459z"/>
			<path i:knockout="Off" d="M85.393,229.953v-0.211c-1.166-1.049-1.75-2.189-1.75-3.42c0-2.359,1-4.365,3-6.02
				c-2.27-1.596-3.406-4.09-3.406-7.48c0-2.625,0.752-4.811,2.254-6.557s3.385-2.619,5.65-2.619c2.043,0,3.879,0.602,5.51,1.807
				c0.583,0.441,1.003,0.662,1.261,0.662c0.617,0,1.312-0.258,2.084-0.771c0.773-0.516,1.236-1.023,1.39-1.529l0.336-1.148
				c0.051-0.223,0.189-0.344,0.414-0.363c0.295-0.021,0.443,0.223,0.443,0.729c0,0.406-0.131,1.193-0.395,2.359
				c-0.262,1.166-0.496,1.982-0.699,2.449c-0.295,0.668-0.807,1.125-1.537,1.369c-0.326,0.121-0.49,0.303-0.49,0.543
				c0,0.143,0.025,0.334,0.078,0.576c0.154,0.645,0.23,1.502,0.23,2.57c0,2.299-0.799,4.307-2.395,6.02
				c-1.597,1.715-3.46,2.572-5.589,2.572c-0.91,0-1.932-0.125-3.066-0.375c-0.326-0.084-0.6-0.125-0.824-0.125
				c-0.537,0-1.057,0.352-1.559,1.055c-0.502,0.705-0.754,1.439-0.754,2.203c0,1.047,0.473,1.791,1.42,2.234
				c0.945,0.441,2.555,0.664,4.824,0.664c3.389,0,5.783,0.414,7.185,1.242c1.4,0.826,2.101,2.25,2.101,4.27
				c0,2.322-0.984,4.293-2.951,5.908s-4.378,2.424-7.23,2.424c-2.75,0-4.98-0.555-6.689-1.664c-1.711-1.107-2.566-2.57-2.566-4.383
				C81.674,232.604,82.914,230.941,85.393,229.953z M86.518,230.414c-1.625,0.848-2.438,2.24-2.438,4.18
				c0,1.613,0.574,2.881,1.719,3.799c1.146,0.918,2.719,1.379,4.719,1.379c2.344,0,4.299-0.531,5.867-1.59
				c1.568-1.059,2.351-2.385,2.351-3.979c0-1.875-1.211-2.812-3.634-2.812c-0.326,0-1.236-0.061-2.732-0.182l-2.732-0.215
				C88.348,230.893,87.309,230.699,86.518,230.414z M91.25,204.678c-1.299,0-2.396,0.684-3.293,2.051s-1.346,3.016-1.346,4.945
				c0,2.514,0.482,4.576,1.447,6.184c0.965,1.609,2.191,2.414,3.678,2.414c1.4,0,2.531-0.648,3.395-1.945
				c0.861-1.297,1.293-3.002,1.293-5.113c0-2.453-0.49-4.488-1.473-6.107S92.734,204.678,91.25,204.678z"/>
			<path i:knockout="Off" d="M122.001,225.334c-1.986,3.02-4.4,4.531-7.244,4.531c-2.398,0-4.27-0.875-5.613-2.621
				c-1.346-1.748-2.018-4.186-2.018-7.316l0.031-2V207.9c0-1.031-0.18-1.748-0.539-2.152c-0.359-0.402-1.025-0.635-2-0.695
				c-0.428-0.041-0.635-0.248-0.617-0.625c0.018-0.357,0.551-0.566,1.598-0.625l1.959-0.094c0.428-0.039,1.072-0.178,1.932-0.414
				c0.24-0.078,0.43-0.117,0.566-0.117c0.465,0,0.695,0.475,0.695,1.422v0.455l-0.156,13.537v0.969l0.412,3.666
				c0.361,1.291,1.029,2.361,2.008,3.209c0.979,0.85,2.043,1.273,3.193,1.273c1.512,0,2.854-0.521,4.029-1.562
				s1.764-2.229,1.764-3.562v-14.498c0-1.152-0.166-1.941-0.5-2.365c-0.334-0.426-0.955-0.637-1.863-0.637
				c-0.549,0-0.824-0.189-0.824-0.566c0-0.457,0.311-0.695,0.928-0.715l0.852-0.061l1.803-0.09c0.584-0.041,1.254-0.201,2.01-0.48
				c0.24-0.08,0.445-0.131,0.617-0.15c0.361-0.021,0.541,0.342,0.541,1.088v19.662c0,1.553,0.143,2.576,0.426,3.07
				s0.863,0.74,1.74,0.74h0.412l0.361-0.029c0.377,0,0.574,0.156,0.592,0.469c0.018,0.438-0.48,0.688-1.496,0.75l-1.623,0.117
				c-1.119,0.059-1.842,0.139-2.168,0.236c-0.412,0.117-0.73,0.178-0.953,0.178c-0.551,0-0.826-0.939-0.826-2.818L122.001,225.334z"
				/>
			<path i:knockout="Off" d="M144.427,215.771v-3.752c0-2.318-0.367-3.922-1.102-4.809c-0.992-1.211-2.324-1.814-3.998-1.814
				c-2.255,0-3.384,1.121-3.384,3.367c0,0.662,0.111,1.424,0.336,2.285c0.102,0.361,0.162,0.682,0.18,0.963
				c0.018,0.359-0.154,0.541-0.512,0.541c-0.802,0-1.532-0.203-2.188-0.605c-0.658-0.404-0.986-0.848-0.986-1.332
				c0-1.248,0.574-2.596,1.723-4.043c1.54-1.951,3.589-2.926,6.141-2.926c2.332,0,4.139,0.609,5.424,1.828
				c1.284,1.219,1.929,2.938,1.929,5.154v11.85c0,1.873,0.191,3.209,0.576,4.004c0.385,0.797,1.031,1.195,1.937,1.195
				c0.256,0,0.461-0.018,0.615-0.055c0.309-0.088,0.514-0.133,0.615-0.133c0.291-0.021,0.428,0.125,0.412,0.438
				c-0.018,0.361-0.422,0.727-1.213,1.098c-0.793,0.371-1.565,0.559-2.321,0.559c-1.412,0-2.685-1.021-3.819-3.062
				c-2.477,2.229-4.773,3.344-6.892,3.344c-1.605,0-2.882-0.51-3.829-1.527c-0.949-1.02-1.422-2.385-1.422-4.1
				c0-2.318,0.896-4.117,2.689-5.398C137.129,217.561,140.157,216.537,144.427,215.771z M144.427,216.99
				c-2.652,0.279-4.701,0.986-6.144,2.117c-1.445,1.133-2.168,2.58-2.168,4.344c0,1.383,0.344,2.479,1.033,3.291
				c0.688,0.811,1.616,1.217,2.79,1.217c1.428,0,2.627-0.553,3.596-1.658c0.594-0.701,0.893-1.816,0.893-3.342V216.99z"/>
			<path i:knockout="Off" d="M157.515,229.953v-0.211c-1.166-1.049-1.75-2.189-1.75-3.42c0-2.359,1-4.365,3-6.02
				c-2.27-1.596-3.406-4.09-3.406-7.48c0-2.625,0.752-4.811,2.254-6.557s3.385-2.619,5.65-2.619c2.043,0,3.879,0.602,5.51,1.807
				c0.584,0.441,1.004,0.662,1.262,0.662c0.617,0,1.312-0.258,2.086-0.771c0.771-0.516,1.234-1.023,1.389-1.529l0.336-1.148
				c0.051-0.223,0.189-0.344,0.416-0.363c0.295-0.021,0.441,0.223,0.441,0.729c0,0.406-0.131,1.193-0.395,2.359
				c-0.262,1.166-0.496,1.982-0.699,2.449c-0.295,0.668-0.807,1.125-1.535,1.369c-0.328,0.121-0.492,0.303-0.492,0.543
				c0,0.143,0.025,0.334,0.078,0.576c0.154,0.645,0.23,1.502,0.23,2.57c0,2.299-0.799,4.307-2.395,6.02
				c-1.598,1.715-3.461,2.572-5.59,2.572c-0.91,0-1.932-0.125-3.066-0.375c-0.326-0.084-0.6-0.125-0.824-0.125
				c-0.537,0-1.057,0.352-1.559,1.055c-0.502,0.705-0.754,1.439-0.754,2.203c0,1.047,0.473,1.791,1.42,2.234
				c0.945,0.441,2.555,0.664,4.824,0.664c3.389,0,5.783,0.414,7.186,1.242c1.4,0.826,2.102,2.25,2.102,4.27
				c0,2.322-0.982,4.293-2.951,5.908c-1.967,1.615-4.379,2.424-7.23,2.424c-2.75,0-4.98-0.555-6.689-1.664
				c-1.711-1.107-2.566-2.57-2.566-4.383C153.796,232.604,155.036,230.941,157.515,229.953z M158.64,230.414
				c-1.625,0.848-2.438,2.24-2.438,4.18c0,1.613,0.574,2.881,1.719,3.799c1.146,0.918,2.719,1.379,4.719,1.379
				c2.344,0,4.299-0.531,5.867-1.59s2.352-2.385,2.352-3.979c0-1.875-1.211-2.812-3.635-2.812c-0.326,0-1.236-0.061-2.732-0.182
				l-2.732-0.215C160.47,230.893,159.431,230.699,158.64,230.414z M163.372,204.678c-1.299,0-2.396,0.684-3.293,2.051
				s-1.346,3.016-1.346,4.945c0,2.514,0.482,4.576,1.447,6.184c0.965,1.609,2.191,2.414,3.678,2.414c1.4,0,2.531-0.648,3.395-1.945
				c0.861-1.297,1.293-3.002,1.293-5.113c0-2.453-0.49-4.488-1.473-6.107S164.856,204.678,163.372,204.678z"/>
			<path i:knockout="Off" d="M180.276,213.99l-0.025,0.668c0,3.461,0.811,6.373,2.434,8.73c1.625,2.359,3.621,3.539,5.992,3.539
				c1.873,0,3.908-0.992,6.107-2.977c0.137-0.121,0.266-0.191,0.387-0.211c0.24-0.021,0.361,0.141,0.361,0.482
				c0,0.604-0.602,1.457-1.801,2.564c-2.23,2.051-4.588,3.078-7.074,3.078c-2.795,0-5.139-1.252-7.033-3.754
				c-1.895-2.504-2.842-5.602-2.842-9.295c0-3.512,0.977-6.586,2.93-9.219c1.955-2.635,4.242-3.951,6.865-3.951
				c2.861,0,5.15,1.4,6.865,4.203c0.41,0.686,0.83,1.613,1.258,2.783c0.43,1.17,0.645,1.986,0.645,2.449
				c0,0.666-0.559,0.998-1.676,0.998l-1.904-0.029l-1.752-0.061H180.276z M180.438,212.334h8.717c1.355,0,2.033-0.322,2.033-0.969
				c0-1.57-0.58-3.031-1.736-4.381c-1.158-1.352-2.414-2.025-3.768-2.025c-1.406,0-2.576,0.66-3.512,1.979
				C181.239,208.258,180.661,210.057,180.438,212.334z"/>
		</g>
		<g>
			<defs>
				<path id="XMLID_2_" d="M180.998,153.019c0.095,4.247-2.705,6.921-6.448,6.921L54.92,159.9c-4.28,0.179-7.312-3.656-7.135-7.759
					L47.725,14.479c0.031-3.734,2.141-7.812,7.125-7.297l119.071,0.092c4.624,0.188,7.518,4.498,7.109,8.273L180.998,153.019z"/>
			</defs>
			<clipPath id="XMLID_3_">
				<use xlink:href="#XMLID_2_" />
			</clipPath>
			<g>
				<g>
					<path i:knockout="Off" clip-path="url(#XMLID_3_)" fill-rule="evenodd" clip-rule="evenodd" fill="#FFFFFF" d="M61.456,75.671
						L37.74,96.133l-14.643,26.975l-1.021,32.435c-0.312,7.652,1.715,13.676,6.027,17.898c7.223,7.071,18.404,8.003,18.865,7.974
						c-1.469,0.129-0.164,0.014,83.093-6.828l7.979-68.177c1.075-6.979,1.749-10.359,1.749-14c0-5.787-0.904-11.367-1.25-12
						c-2.767-14.094-18.09-15.492-18.248-15.5c-0.025-0.002-36.147,0.209-36.147,0.209L61.456,75.671z M86.631,66.32
						c0.393,0.01,31.237,0.756,31.237,0.756c0.562,0.029,14.43,0.898,16.789,13.633l0.033,0.18l0.109,0.18
						c0.016,0.025,0.999,1.768,0.999,7.76c0,3.504-0.337,8.461-1.401,15.379c-0.008,0.068-4.656,59.839-5.266,67.671
						c-1.68,0.121-82.55,6.021-82.55,6.021c-0.094,0.006-10.514,0.553-17.09-5.897c-3.617-3.549-5.445-8.576-5.445-14.959
						c0-0.469,0.01-0.945,0.029-1.428c0-0.01,0.93-29.544,1.006-31.97c0.223-0.408,14.109-25.992,14.262-26.271
						c0.232-0.219,23.037-21.553,23.316-21.812C63.016,75.424,86.27,66.461,86.631,66.32z"/>
				</g>
				<path i:knockout="Off" clip-path="url(#XMLID_3_)" fill-rule="evenodd" clip-rule="evenodd" stroke="#FFFFFF" d="M46.73,179.359
					l83.866-5.694l6.458-84.567l-25.552,51.799L46.73,179.359z"/>
				<path i:knockout="Off" clip-path="url(#XMLID_3_)" fill-rule="evenodd" clip-rule="evenodd" stroke="#FFFFFF" d="
					M103.888,149.782l26.846,23.826l-7.199-48.983L103.888,149.782z"/>
				<path i:knockout="Off" clip-path="url(#XMLID_3_)" fill-rule="evenodd" clip-rule="evenodd" stroke="#FFFFFF" d="M47.01,179.246
					l83.821-5.638l-52.81-4.148L47.01,179.246z"/>
				<path i:knockout="Off" clip-path="url(#XMLID_3_)" fill-rule="evenodd" clip-rule="evenodd" stroke="#FFFFFF" d="
					M31.246,142.247l15.838,37.011l13.191-43.219L31.246,142.247z"/>
				<path i:knockout="Off" clip-path="url(#XMLID_3_)" fill-rule="evenodd" clip-rule="evenodd" stroke="#FFFFFF" d="
					M60.156,135.885l43.728,14.04l-11.179-44.19L60.156,135.885z"/>
				<path i:knockout="Off" clip-path="url(#XMLID_3_)" fill-rule="evenodd" clip-rule="evenodd" stroke="#FFFFFF" d="M92.32,105.787
					l41.979-2.74l-32.84-26.822L92.32,105.787z"/>
				<path i:knockout="Off" clip-path="url(#XMLID_3_)" fill-rule="evenodd" clip-rule="evenodd" stroke="#FFFFFF" d="M87.447,66.52
					l31.497,0.143l-17.521,9.643L87.447,66.52z"/>
				<path i:knockout="Off" clip-path="url(#XMLID_3_)" fill-rule="evenodd" clip-rule="evenodd" stroke="#FFFFFF" d="
					M24.719,123.855l-1.109,32.89l8.09-14.757L24.719,123.855z"/>
				
					<path i:knockout="Off" clip-path="url(#XMLID_3_)" fill-rule="evenodd" clip-rule="evenodd" fill="#FFFFFF" stroke="#FFFFFF" d="
					M24.719,123.855l6.586,18.679l28.611-6.417l32.67-30.363l9.216-29.283l-14.517-10.25l-24.676,9.236
					c-7.777,7.232-22.865,21.541-23.41,21.812C38.662,97.545,29.236,115.355,24.719,123.855z"/>
				<g>
					
						<path i:isolated="yes" i:knockout="Off" clip-path="url(#XMLID_3_)" fill-rule="evenodd" clip-rule="evenodd" enable-background="new    " d="
						M47.84,90.299c16.852-16.707,38.578-26.58,46.914-18.17c8.329,8.412-0.504,28.855-17.355,45.557
						c-16.852,16.705-38.307,27.12-46.639,18.709C22.422,127.99,30.988,107.002,47.84,90.299z"/>
					<path i:knockout="Off" clip-path="url(#XMLID_3_)" fill-rule="evenodd" clip-rule="evenodd" fill="#FFFFFF" d="M47.136,89.589
						c-12.472,12.362-20.56,27.168-20.604,37.723c0,0.03,0,0.06,0,0.089c0,4.083,1.183,7.346,3.518,9.698
						c2.134,2.154,5.085,3.256,8.771,3.272c10.348,0.047,25.767-8.578,39.281-21.976c18.378-18.214,25.84-38.406,17.362-46.971
						c-2.189-2.209-5.245-3.337-9.081-3.354C75.937,68.025,60.164,76.673,47.136,89.589z M38.83,138.371
						c-3.13-0.2-5.612-0.916-7.359-2.681c-1.965-1.98-2.953-4.796-2.938-8.37c0.042-10.052,7.897-24.304,20.012-36.312
						C61.22,78.441,76.092,70.95,86.043,70.993c3.287,0.015,5.867,0.944,7.669,2.763c7.551,7.626,0.445,26.778-16.835,43.904
						C63.922,130.502,51.21,139.162,38.83,138.371z M47.136,89.589z"/>
				</g>
				<path i:knockout="Off" clip-path="url(#XMLID_3_)" fill-rule="evenodd" clip-rule="evenodd" stroke="#FFFFFF" d="
					M47.084,179.242l13.09-43.357l43.47,13.966C87.926,164.589,70.445,177.049,47.084,179.242z"/>
				
					<path i:knockout="Off" clip-path="url(#XMLID_3_)" fill-rule="evenodd" clip-rule="evenodd" stroke="#FFFFFF" stroke-width="2" stroke-linecap="round" stroke-linejoin="round" d="
					M92.643,105.668l11.157,44.206c11.061-11.63,25.918-31.847,30.684-47.007L92.643,105.668z"/>
				<path i:knockout="Off" clip-path="url(#XMLID_3_)" fill-rule="evenodd" clip-rule="evenodd" stroke="#FFFFFF" d="M134.37,103.09
					c4.461-13.479,5.492-32.814-15.562-36.404l-17.283,9.545L134.37,103.09z"/>
				<path i:knockout="Off" clip-path="url(#XMLID_3_)" fill-rule="evenodd" clip-rule="evenodd" stroke="#FFFFFF" d="M23.609,156.55
					c0.617,22.245,16.668,22.577,23.504,22.772L31.322,142.44L23.609,156.55z"/>
				
					<path i:knockout="Off" clip-path="url(#XMLID_3_)" fill-rule="evenodd" clip-rule="evenodd" stroke="#FFFFFF" stroke-width="0.5" d="
					M92.705,105.734c10.087,6.201,30.419,18.658,30.829,18.891c0.643,0.359,8.768-13.705,10.611-21.656L92.705,105.734z"/>
				
					<path i:knockout="Off" clip-path="url(#XMLID_3_)" fill-rule="evenodd" clip-rule="evenodd" stroke="#FFFFFF" stroke-width="0.5" d="
					M60.156,135.885l17.498,33.763c10.35-5.611,18.451-12.449,25.87-19.773L60.156,135.885z"/>
				<path i:knockout="Off" clip-path="url(#XMLID_3_)" fill-rule="evenodd" clip-rule="evenodd" stroke="#FFFFFF" d="
					M31.252,142.487l-2.479,29.525c4.678,6.386,11.113,6.942,17.865,6.444C41.754,166.304,31.996,141.996,31.252,142.487z"/>
				
					<path i:knockout="Off" clip-path="url(#XMLID_3_)" fill-rule="evenodd" clip-rule="evenodd" stroke="#FFFFFF" stroke-width="0.5" d="
					M101.423,76.305l34.761,4.881c-1.853-7.865-7.552-12.938-17.261-14.523L101.423,76.305z"/>
			</g>
		</g>
		<path i:knockout="Off" fill="#FFFFFF" d="M97.461,76.744l-2.219-15.85l4.637,15.287l4.222-4.297l-2.117,5.619l18.368-3.251
			l-17.81,5.668l5.375,5.033l-6.693-2.932l3.059,21.11l-5.476-20.548l-4.663,4.765l2.557-6.087l-17.375,3.306l16.82-5.723
			l-4.434-4.331L97.461,76.744z"/>
		<g>
			<path i:knockout="Off" d="M54.301,6.402c-3.83,0-6.947,3.215-6.947,7.167v139.779c0,3.952,3.117,7.167,6.947,7.167h120.216
				c3.828,0,6.945-3.215,6.945-7.167V13.569c0-3.952-3.117-7.167-6.945-7.167H54.301z M56.686,148.305L49.688,11.496
				c0-1.691,1.26-3.068,2.809-3.068l117.177,6.812c1.549,0,2.807,1.377,2.807,3.068l6.918,136.848c0,1.693-1.26,3.069-2.809,3.069
				l-117.095-6.853C57.945,151.373,56.686,149.997,56.686,148.305z"/>
		</g>
		<path i:knockout="Off" fill="none" d="M198.425,243.779H0V0h198.425V243.779z"/>
	</g>
</svg>
